<svg version="1.0" xmlns="http://www.w3.org/2000/svg"
 width="512.000000pt" height="512.000000pt" viewBox="0 0 512.000000 512.000000"
 preserveAspectRatio="xMidYMid meet">

<g transform="translate(0.000000,512.000000) scale(0.100000,-0.100000)"
fill="#000000" stroke="none">
<path d="M1355 4401 c-583 -335 -1061 -615 -1063 -623 -11 -53 26 -34 1007
525 l985 560 68 -37 68 -37 0 110 c0 61 -1 111 -2 110 -2 0 -480 -274 -1063
-608z"/>
<path d="M4370 4898 c-96 -56 -428 -247 -738 -425 -309 -178 -569 -326 -577
-329 -13 -5 -15 27 -15 245 0 138 -2 251 -4 251 -2 0 -118 -66 -257 -146 -140
-81 -292 -167 -339 -192 -101 -54 -967 -549 -1430 -819 -200 -116 -228 -128
-260 -116 -17 6 -126 66 -243 133 -116 67 -266 152 -332 189 l-120 68 -7
-1216 c-4 -669 -7 -1413 -5 -1655 l2 -438 310 -180 c402 -233 397 -231 432
-217 15 6 315 175 666 376 637 366 638 367 662 414 14 26 36 56 50 67 l25 20
0 308 c0 226 4 315 13 332 8 15 138 96 366 228 195 112 357 204 362 204 4 0
29 -15 57 -32 27 -18 57 -37 66 -43 14 -8 -54 -51 -349 -220 l-365 -210 0
-284 0 -285 36 -37 c56 -58 60 -146 9 -207 -21 -26 -23 -33 -14 -66 9 -34 17
-40 122 -90 209 -101 390 -147 659 -168 403 -31 823 67 1096 255 85 58 180
157 222 230 60 104 63 122 69 487 l6 334 267 156 268 155 0 90 0 90 -892 514
c-490 283 -896 514 -902 514 -6 0 -62 -30 -124 -67 -62 -36 -115 -66 -118 -66
-2 0 -3 88 -2 196 l3 195 802 462 802 462 1 288 0 287 -47 30 c-26 17 -49 30
-52 29 -4 0 -85 -46 -181 -101z m270 38 c0 -2 -7 -7 -16 -10 -8 -3 -12 -2 -9
4 6 10 25 14 25 6z m-40 -21 c0 -2 -13 -11 -30 -20 -38 -19 -40 -11 -2 9 31
17 32 18 32 11z m-70 -39 c0 -2 -37 -25 -82 -51 -46 -26 -99 -57 -118 -68 -19
-11 -30 -15 -25 -9 8 9 214 131 223 132 1 0 2 -2 2 -4z m-48 -198 c12 -10 13
-20 7 -44 -7 -26 -16 -33 -44 -38 -35 -7 -95 -49 -84 -60 3 -3 22 -1 43 5 31
8 42 7 69 -8 18 -11 33 -27 35 -37 12 -63 -46 -149 -129 -191 -54 -28 -87 -31
-113 -12 -26 19 -13 77 17 77 42 1 130 50 115 65 -2 2 -19 0 -38 -4 -42 -9
-97 13 -106 42 -19 60 37 151 117 191 58 29 87 32 111 14z m-254 -130 c8 -8
12 -60 12 -167 l0 -156 -31 -17 c-23 -14 -35 -15 -50 -8 -18 10 -19 23 -19
170 l0 159 28 15 c33 19 45 19 60 4z m-119 -87 c23 -15 -4 -81 -33 -81 -25 0
-87 -38 -93 -56 -3 -8 8 -9 41 -1 39 9 47 7 75 -12 53 -38 40 -110 -31 -178
-58 -56 -156 -90 -175 -60 -5 8 -10 0 -13 -23 -5 -31 -13 -39 -107 -93 -146
-83 -143 -86 -143 116 l1 162 101 58 c56 32 107 56 115 53 7 -3 18 -16 23 -28
7 -18 9 -19 9 -5 1 23 40 81 72 105 60 47 124 64 158 43z m-525 -277 c14 -5
16 -30 16 -168 l0 -162 -33 -16 c-47 -23 -67 -9 -67 47 l0 45 -45 -28 -46 -27
6 -47 c4 -26 4 -56 1 -66 -8 -25 -58 -46 -85 -37 -19 6 -21 14 -21 111 0 57
-2 104 -4 104 -3 0 -21 -9 -40 -21 l-36 -21 0 -129 0 -128 -30 -16 c-17 -9
-40 -13 -50 -10 -18 6 -20 16 -20 117 l0 110 -25 -16 c-36 -23 -65 -6 -65 37
1 30 7 35 119 100 73 41 125 65 135 61 10 -4 16 -1 16 9 0 8 15 24 33 35 46
26 67 14 67 -38 0 -22 3 -40 6 -40 4 0 24 10 45 22 39 22 39 22 39 85 0 58 2
63 28 77 31 18 35 18 56 10z m-894 -848 l0 -494 -589 -342 -589 -342 -6 -46
c-9 -68 -7 -127 5 -139 9 -9 -119 -88 -353 -220 -5 -2 -8 266 -8 595 l0 600
763 440 c419 242 765 441 770 441 4 1 7 -221 7 -493z m-831 -1565 c19 -15 3
-26 -336 -221 -196 -113 -360 -207 -365 -208 -5 -2 -8 36 -6 88 l3 93 284 163
284 163 58 -31 c32 -18 67 -39 78 -47z m191 -209 l0 -89 -445 -256 c-245 -142
-448 -257 -451 -257 -3 0 -3 41 -2 91 l3 90 440 254 c242 140 443 255 448 255
4 0 7 -40 7 -88z"/>
<path d="M3800 4229 c-35 -21 -66 -43 -68 -48 -5 -16 5 -14 48 12 48 27 75 16
75 -29 0 -25 -8 -34 -62 -64 -34 -19 -63 -41 -63 -47 0 -18 2 -17 61 18 37 22
55 27 63 19 8 -8 14 -2 21 21 9 26 20 35 53 45 48 14 92 40 92 54 0 5 -21 7
-48 3 -44 -5 -51 -3 -78 24 l-29 29 -65 -37z"/>
</g>
</svg>
